<svg width="450.979" height="72.024" viewBox="0 0 450.979 72.024" xmlns="http://www.w3.org/2000/svg"><g id="svgGroup" stroke-linecap="round" fill-rule="evenodd" font-size="9pt" stroke="#000000" stroke-width="0.25mm" fill="#000000" style="stroke:#000000;stroke-width:0.25mm;fill:#000000"><path d="M 31.006 72.021 L 20.02 72.021 L 0 2.002 L 10.01 2.002 L 25.537 57.715 L 41.016 2.002 L 51.025 2.002 L 66.504 57.715 L 82.031 2.002 L 92.041 2.002 L 72.021 72.021 L 61.035 72.021 L 46.045 19.531 L 31.006 72.021 Z M 396.143 55.029 L 396.143 50.83 L 405.957 50.83 L 405.957 54.541 A 14.108 14.108 0 0 0 406.104 56.652 Q 406.465 59.032 407.715 60.352 Q 409.006 61.714 411.509 62.076 A 13.789 13.789 0 0 0 413.477 62.207 L 433.643 62.207 Q 436.014 62.207 437.598 61.556 A 5.137 5.137 0 0 0 439.404 60.352 A 5.616 5.616 0 0 0 440.575 58.412 Q 440.896 57.546 441.041 56.469 A 14.42 14.42 0 0 0 441.162 54.541 L 441.162 49.121 A 14.427 14.427 0 0 0 441.023 47.043 Q 440.668 44.609 439.404 43.311 A 5.188 5.188 0 0 0 437.521 42.108 Q 435.957 41.504 433.643 41.504 L 412.939 41.504 L 412.939 31.738 L 433.35 31.738 Q 437.012 31.592 438.599 29.761 A 5.632 5.632 0 0 0 439.626 27.947 Q 440.186 26.382 440.186 24.121 L 440.186 19.531 A 14.313 14.313 0 0 0 440.045 17.449 Q 439.887 16.38 439.553 15.523 A 5.536 5.536 0 0 0 438.403 13.672 Q 437.064 12.277 434.496 11.931 A 13.72 13.72 0 0 0 432.666 11.816 L 414.453 11.816 A 13.311 13.311 0 0 0 412.402 11.963 Q 410.004 12.338 408.74 13.672 A 5.602 5.602 0 0 0 407.57 15.62 Q 406.982 17.216 406.982 19.531 L 406.982 23.242 L 397.168 23.242 L 397.168 19.043 Q 397.168 5.521 407.867 2.728 A 24.966 24.966 0 0 1 414.16 2.002 L 432.959 2.002 A 28.263 28.263 0 0 1 437.697 2.372 Q 440.229 2.803 442.226 3.738 A 12.306 12.306 0 0 1 445.776 6.201 A 12.971 12.971 0 0 1 448.773 11.114 Q 449.491 13.148 449.771 15.647 A 30.486 30.486 0 0 1 449.951 19.043 L 449.951 20.313 A 27.666 27.666 0 0 1 449.662 24.432 Q 449.336 26.594 448.642 28.389 A 14.428 14.428 0 0 1 447.876 30.054 A 12.935 12.935 0 0 1 441.846 35.742 A 11.381 11.381 0 0 1 448.633 41.016 A 15.191 15.191 0 0 1 450.234 44.967 Q 450.977 47.83 450.977 51.514 L 450.977 55.029 Q 450.977 72.021 433.984 72.021 L 413.184 72.021 Q 399.661 72.021 396.869 61.322 A 24.966 24.966 0 0 1 396.143 55.029 Z M 361.182 72.021 L 350.146 72.021 L 323.145 2.002 L 333.887 2.002 L 355.664 59.619 L 377.49 2.002 L 388.184 2.002 L 361.182 72.021 Z M 144.043 29.639 L 144.043 50.928 L 109.619 50.928 L 109.619 62.402 L 144.043 62.402 L 144.043 72.021 L 109.619 72.021 A 9.285 9.285 0 0 1 105.908 71.265 A 9.681 9.681 0 0 1 102.856 69.214 A 9.681 9.681 0 0 1 100.806 66.162 Q 100.049 64.404 100.049 62.402 L 100.049 29.639 Q 100.049 27.637 100.806 25.879 A 9.681 9.681 0 0 1 102.856 22.827 A 9.681 9.681 0 0 1 105.908 20.776 A 9.285 9.285 0 0 1 109.619 20.02 L 134.424 20.02 Q 136.426 20.02 138.184 20.776 A 9.681 9.681 0 0 1 141.235 22.827 A 9.681 9.681 0 0 1 143.286 25.879 Q 144.043 27.637 144.043 29.639 Z M 258.643 72.021 L 223.047 72.021 L 223.047 2.002 L 258.643 2.002 A 31.394 31.394 0 0 1 264.299 2.491 A 25.048 25.048 0 0 1 268.774 3.735 A 22.313 22.313 0 0 1 274.918 7.248 A 20.717 20.717 0 0 1 276.489 8.667 A 21.48 21.48 0 0 1 281.054 15.498 A 25.011 25.011 0 0 1 281.421 16.406 A 26.308 26.308 0 0 1 282.968 22.971 A 32.759 32.759 0 0 1 283.154 26.514 L 283.154 47.51 A 30.924 30.924 0 0 1 282.606 53.448 A 25.245 25.245 0 0 1 281.421 57.617 A 22.397 22.397 0 0 1 278.085 63.563 A 20.575 20.575 0 0 1 276.489 65.356 Q 273.291 68.555 268.774 70.288 A 25.912 25.912 0 0 1 262.537 71.798 A 32.859 32.859 0 0 1 258.643 72.021 Z M 206.055 29.639 L 206.055 62.402 Q 206.055 64.404 205.298 66.162 A 9.681 9.681 0 0 1 203.247 69.214 A 9.681 9.681 0 0 1 200.195 71.265 Q 198.438 72.021 196.436 72.021 L 169.629 72.021 A 9.285 9.285 0 0 1 165.918 71.265 A 9.681 9.681 0 0 1 162.866 69.214 A 9.681 9.681 0 0 1 160.815 66.162 Q 160.059 64.404 160.059 62.402 L 160.059 0 L 169.629 0 L 169.629 29.199 A 9.62 9.62 0 0 1 170.508 25.61 Q 171.289 23.926 172.583 22.681 A 9.568 9.568 0 0 1 175.586 20.728 Q 177.295 20.02 179.248 20.02 L 196.436 20.02 Q 198.438 20.02 200.195 20.776 A 9.681 9.681 0 0 1 203.247 22.827 A 9.681 9.681 0 0 1 205.298 25.879 Q 206.055 27.637 206.055 29.639 Z M 233.057 62.012 L 258.643 62.012 A 20.787 20.787 0 0 0 262.878 61.607 Q 266.859 60.778 269.385 58.252 Q 273.145 54.492 273.145 47.51 L 273.145 26.514 A 20.476 20.476 0 0 0 272.9 23.279 A 15.579 15.579 0 0 0 272.168 20.41 A 12.69 12.69 0 0 0 270.298 16.966 A 11.653 11.653 0 0 0 269.312 15.845 A 12.142 12.142 0 0 0 265.283 13.196 A 14.192 14.192 0 0 0 264.746 12.988 A 15.883 15.883 0 0 0 261.396 12.186 A 20.963 20.963 0 0 0 258.643 12.012 L 233.057 12.012 L 233.057 62.012 Z M 196.436 29.639 L 169.629 29.639 L 169.629 62.402 L 196.436 62.402 L 196.436 29.639 Z M 134.424 29.639 L 109.619 29.639 L 109.619 41.309 L 134.424 41.309 L 134.424 29.639 Z" vector-effect="non-scaling-stroke"/></g></svg>